# xmcd CD database file
# Copyright (C) 1993-1996 Ti Kan
#
# Track frame offsets:
# 150
# 10620
# 25702
# 36092
# 48037
# 59332
# 74817
# 85500
# 96732
# 111515
# 125322
# 135822
# 148032
# 160462
# 174297
# 185010
# 196865
# 205907
#
# Disc length: 2914 seconds
#
# Revision: 0
# Processed by: cddbd v1.4b41PL1 Copyright (c) Steve Scherf et al.
# Submitted via: inCDius 1.1b5
#
DISCID=f60b6012
DTITLE=Don Gibson - 18 Greatest Hits
DYEAR=1900
DGENRE=
TTITLE0=Sea Of Heartbreak
TTITLE1=Woman ( Sensuous Woman)
TTITLE2=Country Green
TTITLE3=Oh Lonesome Me
TTITLE4=Who Cares
TTITLE5=Sweet Dreams
TTITLE6=Look Who's Blue 
TTITLE7=Give Myself A Party
TTITLE8=I Can't Stop Loving You
TTITLE9=One Day At A Time
TTITLE10=Lonesome Number One
TTITLE11=Bring Back Your Love To Me
TTITLE12=I'm All Wrapped Up In You
TTITLE13=Touch The Morning
TTITLE14=Just One Time
TTITLE15=Is This The Best I'm Gonna Feel
TTITLE16=Blue Blue Day
TTITLE17=Too Soon To Know
EXTD=
EXTT0=
EXTT1=
EXTT2=
EXTT3=
EXTT4=
EXTT5=
EXTT6=
EXTT7=
EXTT8=
EXTT9=
EXTT10=
EXTT11=
EXTT12=
EXTT13=
EXTT14=
EXTT15=
EXTT16=
EXTT17=
PLAYORDER=
